# xmcd
#
# Track frame offsets:
#	150
#	11872
#	23662
#	35871
#	51348
#	66386
#	78919
#	94044
#	110897
#	122059
#	143036
#	157988
#	167573
#	180396
#	195103
#	211306
#	221405
#	236366
#	248385
#	258772
#	276218
#	289291
#
# Disc length: 3982 seconds
#
# Revision: 1
# Processed by: cddbd v1.5.2PL0 Copyright (c) Steve Scherf et al.
# Submitted via: audiograbber 1.83.01
#
DISCID=300f8c16
DTITLE=Western Heart - Christmas Special Western Heart
DYEAR=2000
DGENRE=Christmas
TTITLE0=The Christmas Yodel - Riders In The Sky
TTITLE1=Jesus Won´t Come Down Your Chimney - Charle Louvin
TTITLE2=Christmas Time At Granma´s House - Bobby Bare
TTITLE3=I Love Country Christmas - Ernie Ashworth
TTITLE4=We Tree Kings Of Orient Are - Tim Thompson
TTITLE5=This Must Be Christmas - Richard Burr
TTITLE6=And The Angels Sing - Billy Walker
TTITLE7=The Wonderfull Christmas - Sylvia Winters
TTITLE8=Christmas Times A Commin´ - Arne Benoni
TTITLE9=Little Orphan Joe - Eddie Stubbs
TTITLE10=Santa Claus Express - Lonnie Joe Howell
TTITLE11=Winter Wonderland - Tom Gunningham
TTITLE12=Let´s Have A Grand Ole Christmas - Tommy Cash and Carol Lee Singers
TTITLE13=Quit Christmas Eve - Harold "hawk" Hawkinds
TTITLE14=Beatifull Star Of Betlehem - The Whites
TTITLE15=Christmas Times A Commin´ - Second Fiddles Band
TTITLE16=Dear Santa - Billy Keeble
TTITLE17=I Saw Mommy Kissing Santa Claus - Ken Carlyste
TTITLE18=Vissions - Cherlyl K. Warner
TTITLE19=Silent Nights - Tom Cunningham
TTITLE20=The Night Before Jesus Came - Stu Phillips
TTITLE21=Blue Christmas - Shayne Weems
EXTD=
EXTT0=
EXTT1=
EXTT2=
EXTT3=
EXTT4=
EXTT5=
EXTT6=
EXTT7=
EXTT8=
EXTT9=
EXTT10=
EXTT11=
EXTT12=
EXTT13=
EXTT14=
EXTT15=
EXTT16=
EXTT17=
EXTT18=
EXTT19=
EXTT20=
EXTT21=
PLAYORDER=
